<svg width="40" height="35" viewBox="0 0 40 35" fill="none" xmlns="http://www.w3.org/2000/svg">
<g clip-path="url(#clip0_2_229)" filter="url(#filter0_d_2_229)">
<path d="M35.3335 8.67606C35.1524 8.0297 34.7994 7.44452 34.3122 6.98273C33.8113 6.50673 33.1973 6.16624 32.5282 5.99339C30.0242 5.33339 19.9922 5.33339 19.9922 5.33339C15.81 5.28581 11.6288 5.49509 7.47221 5.96006C6.80313 6.14568 6.1903 6.49378 5.68821 6.97339C5.19488 7.44806 4.83755 8.03339 4.65088 8.67473C4.20247 11.0904 3.9846 13.5432 4.00021 16.0001C3.98421 18.4547 4.20155 20.9067 4.65088 23.3254C4.83355 23.9641 5.18955 24.5467 5.68421 25.0174C6.17888 25.4881 6.79488 25.8281 7.47221 26.0081C10.0095 26.6667 19.9922 26.6667 19.9922 26.6667C24.1798 26.7144 28.3663 26.5051 32.5282 26.0401C33.1973 25.8672 33.8113 25.5267 34.3122 25.0507C34.7992 24.589 35.1518 24.0038 35.3322 23.3574C35.7923 20.9427 36.0161 18.4888 36.0002 16.0307C36.0348 13.5622 35.8114 11.0968 35.3335 8.67473V8.67606ZM16.8029 20.5654V11.4361L25.1495 16.0014L16.8029 20.5654Z" fill="#212121"/>
</g>
<defs>
<filter id="filter0_d_2_229" x="0" y="0" width="40" height="40" filterUnits="userSpaceOnUse" color-interpolation-filters="sRGB">
<feFlood flood-opacity="0" result="BackgroundImageFix"/>
<feColorMatrix in="SourceAlpha" type="matrix" values="0 0 0 0 0 0 0 0 0 0 0 0 0 0 0 0 0 0 127 0" result="hardAlpha"/>
<feOffset dy="4"/>
<feGaussianBlur stdDeviation="2"/>
<feComposite in2="hardAlpha" operator="out"/>
<feColorMatrix type="matrix" values="0 0 0 0 0 0 0 0 0 0 0 0 0 0 0 0 0 0 0.25 0"/>
<feBlend mode="normal" in2="BackgroundImageFix" result="effect1_dropShadow_2_229"/>
<feBlend mode="normal" in="SourceGraphic" in2="effect1_dropShadow_2_229" result="shape"/>
</filter>
<clipPath id="clip0_2_229">
<rect width="32" height="32" fill="white" transform="translate(4)"/>
</clipPath>
</defs>
</svg>
